<?xml version="1.0" encoding="UTF-8" standalone="no"?>
<!DOCTYPE svg PUBLIC "-//W3C//DTD SVG 1.1//EN"
 "http://www.w3.org/Graphics/SVG/1.1/DTD/svg11.dtd">
<!-- Generated by graphviz version 2.38.0 (20140413.2041)
 -->
<!-- Title: %3 Pages: 1 -->
<svg width="198pt" height="632pt"
 viewBox="0.00 0.00 197.57 632.00" xmlns="http://www.w3.org/2000/svg" xmlns:xlink="http://www.w3.org/1999/xlink">
<g id="graph0" class="graph" transform="scale(1 1) rotate(0) translate(4 628)">
<title>%3</title>
<polygon fill="white" stroke="none" points="-4,4 -4,-628 193.575,-628 193.575,4 -4,4"/>
<!-- Yn -->
<g id="node1" class="node"><title>Yn</title>
<ellipse fill="none" stroke="black" cx="141.575" cy="-606" rx="27" ry="18"/>
<text text-anchor="middle" x="141.575" y="-602.3" font-family="Times,serif" font-size="14.00">Yn</text>
</g>
<!-- Y1 -->
<g id="node2" class="node"><title>Y1</title>
<polygon fill="none" stroke="black" points="168.575,-551 114.575,-551 114.575,-515 168.575,-515 168.575,-551"/>
<text text-anchor="middle" x="141.575" y="-529.3" font-family="Times,serif" font-size="14.00">Y1</text>
</g>
<!-- Yn&#45;&gt;Y1 -->
<g id="edge1" class="edge"><title>Yn&#45;&gt;Y1</title>
<path fill="none" stroke="black" d="M141.575,-587.813C141.575,-579.789 141.575,-570.047 141.575,-561.069"/>
<polygon fill="black" stroke="black" points="145.075,-561.029 141.575,-551.029 138.075,-561.029 145.075,-561.029"/>
</g>
<!-- x1 -->
<g id="node3" class="node"><title>x1</title>
<polygon fill="none" stroke="black" points="100.575,-478 72.9251,-460 100.575,-442 128.224,-460 100.575,-478"/>
<text text-anchor="middle" x="100.575" y="-456.3" font-family="Times,serif" font-size="14.00">x1</text>
</g>
<!-- Y1&#45;&gt;x1 -->
<g id="edge2" class="edge"><title>Y1&#45;&gt;x1</title>
<path fill="none" stroke="black" d="M131.65,-514.813C125.989,-505.009 118.846,-492.64 112.836,-482.233"/>
<polygon fill="black" stroke="black" points="115.742,-480.267 107.711,-473.357 109.68,-483.767 115.742,-480.267"/>
</g>
<!-- x2 -->
<g id="node4" class="node"><title>x2</title>
<polygon fill="none" stroke="black" points="27.5747,-391 -0.0749208,-373 27.5747,-355 55.2244,-373 27.5747,-391"/>
<text text-anchor="middle" x="27.5747" y="-369.3" font-family="Times,serif" font-size="14.00">x2</text>
</g>
<!-- x1&#45;&gt;x2 -->
<g id="edge4" class="edge"><title>x1&#45;&gt;x2</title>
<path fill="none" stroke="black" d="M91.0312,-447.888C79.0082,-433.888 58.1686,-409.623 43.6651,-392.735"/>
<polygon fill="black" stroke="black" points="46.291,-390.421 37.1205,-385.115 40.9806,-394.982 46.291,-390.421"/>
<text text-anchor="middle" x="79.5747" y="-412.8" font-family="Times,serif" font-size="14.00">true</text>
</g>
<!-- Y2 -->
<g id="node8" class="node"><title>Y2</title>
<polygon fill="none" stroke="black" points="127.575,-391 73.5747,-391 73.5747,-355 127.575,-355 127.575,-391"/>
<text text-anchor="middle" x="100.575" y="-369.3" font-family="Times,serif" font-size="14.00">Y2</text>
</g>
<!-- x1&#45;&gt;Y2 -->
<g id="edge3" class="edge"><title>x1&#45;&gt;Y2</title>
<path fill="none" stroke="black" d="M100.575,-441.799C100.575,-430.163 100.575,-414.548 100.575,-401.237"/>
<polygon fill="black" stroke="black" points="104.075,-401.175 100.575,-391.175 97.0748,-401.175 104.075,-401.175"/>
<text text-anchor="middle" x="113.575" y="-412.8" font-family="Times,serif" font-size="14.00">false</text>
</g>
<!-- Y3 -->
<g id="node5" class="node"><title>Y3</title>
<polygon fill="none" stroke="black" points="122.575,-304 68.5747,-304 68.5747,-268 122.575,-268 122.575,-304"/>
<text text-anchor="middle" x="95.5747" y="-282.3" font-family="Times,serif" font-size="14.00">Y3</text>
</g>
<!-- x2&#45;&gt;Y3 -->
<g id="edge6" class="edge"><title>x2&#45;&gt;Y3</title>
<path fill="none" stroke="black" d="M36.7455,-360.537C46.6242,-348.188 62.6518,-328.154 75.4847,-312.113"/>
<polygon fill="black" stroke="black" points="78.3409,-314.145 81.8548,-304.15 72.8748,-309.772 78.3409,-314.145"/>
<text text-anchor="middle" x="77.5747" y="-325.8" font-family="Times,serif" font-size="14.00">true</text>
</g>
<!-- Y5 -->
<g id="node9" class="node"><title>Y5</title>
<polygon fill="none" stroke="black" points="56.5747,-250 2.57472,-250 2.57472,-214 56.5747,-214 56.5747,-250"/>
<text text-anchor="middle" x="29.5747" y="-228.3" font-family="Times,serif" font-size="14.00">Y5</text>
</g>
<!-- x2&#45;&gt;Y5 -->
<g id="edge5" class="edge"><title>x2&#45;&gt;Y5</title>
<path fill="none" stroke="black" d="M27.4797,-354.875C27.4499,-345.22 27.4518,-332.937 27.5747,-322 27.8076,-301.267 28.3457,-277.823 28.8051,-260.202"/>
<polygon fill="black" stroke="black" points="32.3077,-260.15 29.0776,-250.06 25.3102,-259.962 32.3077,-260.15"/>
<text text-anchor="middle" x="40.5747" y="-325.8" font-family="Times,serif" font-size="14.00">false</text>
</g>
<!-- x3 -->
<g id="node6" class="node"><title>x3</title>
<polygon fill="none" stroke="black" points="95.5747,-196 67.9251,-178 95.5747,-160 123.224,-178 95.5747,-196"/>
<text text-anchor="middle" x="95.5747" y="-174.3" font-family="Times,serif" font-size="14.00">x3</text>
</g>
<!-- Y3&#45;&gt;x3 -->
<g id="edge7" class="edge"><title>Y3&#45;&gt;x3</title>
<path fill="none" stroke="black" d="M95.5747,-267.969C95.5747,-251.378 95.5747,-225.883 95.5747,-206.431"/>
<polygon fill="black" stroke="black" points="99.0748,-206.341 95.5747,-196.341 92.0748,-206.341 99.0748,-206.341"/>
</g>
<!-- x3&#45;&gt;Y1 -->
<g id="edge8" class="edge"><title>x3&#45;&gt;Y1</title>
<path fill="none" stroke="black" d="M107.419,-188.763C126.902,-205.997 163.575,-243.896 163.575,-285 163.575,-461 163.575,-461 163.575,-461 163.575,-476.219 158.905,-492.485 153.869,-505.602"/>
<polygon fill="black" stroke="black" points="150.591,-504.371 150.018,-514.95 157.063,-507.038 150.591,-504.371"/>
<text text-anchor="middle" x="176.575" y="-369.3" font-family="Times,serif" font-size="14.00">false</text>
</g>
<!-- Y4 -->
<g id="node7" class="node"><title>Y4</title>
<polygon fill="none" stroke="black" points="119.575,-109 65.5747,-109 65.5747,-73 119.575,-73 119.575,-109"/>
<text text-anchor="middle" x="92.5747" y="-87.3" font-family="Times,serif" font-size="14.00">Y4</text>
</g>
<!-- x3&#45;&gt;Y4 -->
<g id="edge9" class="edge"><title>x3&#45;&gt;Y4</title>
<path fill="none" stroke="black" d="M94.982,-160.207C94.5697,-148.525 94.0109,-132.692 93.5355,-119.222"/>
<polygon fill="black" stroke="black" points="97.0271,-118.92 93.1765,-109.049 90.0315,-119.167 97.0271,-118.92"/>
<text text-anchor="middle" x="105.575" y="-130.8" font-family="Times,serif" font-size="14.00">true</text>
</g>
<!-- Yk -->
<g id="node10" class="node"><title>Yk</title>
<ellipse fill="none" stroke="black" cx="56.5747" cy="-18" rx="27" ry="18"/>
<text text-anchor="middle" x="56.5747" y="-14.3" font-family="Times,serif" font-size="14.00">Yk</text>
</g>
<!-- Y4&#45;&gt;Yk -->
<g id="edge10" class="edge"><title>Y4&#45;&gt;Yk</title>
<path fill="none" stroke="black" d="M83.8601,-72.8129C79.5526,-64.3175 74.2682,-53.8954 69.5008,-44.4932"/>
<polygon fill="black" stroke="black" points="72.6052,-42.8761 64.9612,-35.54 66.3619,-46.0418 72.6052,-42.8761"/>
</g>
<!-- Y2&#45;&gt;Y3 -->
<g id="edge11" class="edge"><title>Y2&#45;&gt;Y3</title>
<path fill="none" stroke="black" d="M99.5629,-354.799C98.8784,-343.163 97.9599,-327.548 97.1769,-314.237"/>
<polygon fill="black" stroke="black" points="100.666,-313.953 96.585,-304.175 93.6784,-314.364 100.666,-313.953"/>
</g>
<!-- Y5&#45;&gt;Yk -->
<g id="edge12" class="edge"><title>Y5&#45;&gt;Yk</title>
<path fill="none" stroke="black" d="M31.7842,-213.651C36.4848,-176.743 47.5055,-90.21 53.1343,-46.0134"/>
<polygon fill="black" stroke="black" points="56.6186,-46.3581 54.4101,-35.9961 49.6747,-45.4737 56.6186,-46.3581"/>
</g>
</g>
</svg>
